<?xml version="1.0" encoding="utf-8"?>
<!-- Generator: Adobe Illustrator 21.0.0, SVG Export Plug-In . SVG Version: 6.00 Build 0)  -->
<svg version="1.1" id="Layer_1" xmlns="http://www.w3.org/2000/svg" xmlns:xlink="http://www.w3.org/1999/xlink" x="0px" y="0px"
	 viewBox="0 0 1068.5 335.1" style="enable-background:new 0 0 1068.5 335.1;" xml:space="preserve">
<style type="text/css">
	.st0{enable-background:new    ;}
	.st1{fill:#3C9D80;}
</style>
<title>achi</title>
<g>
	<g class="st0">
		<g>
			<path class="st1" d="M25.4,296.2c6.6-1.3,13.2-2.5,19.8-3.6c6.1-1.8,12.2-3.5,18.3-5.2c-0.4-1.1-0.9-2.1-1.3-3.2
				c-10.9-27.3-11.8-92.8,22.6-196C37.1,103.1,12,120.5,9.1,137.7c0.1,0.9,0.3,2.9,0.7,6c1.2,5.9,0.7,9.1-1.8,9.8
				c-0.7,0.2-1.3-0.2-1.8-1.3C-6.6,121.6,20.5,94.7,88.8,77c0.8-9.1,3.9-14.2,9.2-15.3c3.4-0.7,7.6-0.7,12.5,0.1
				c4.9,0.8,7.6,2.1,8.1,4c0.2,0.8-0.3,2.5-1.5,5c4.8-0.6,7.2-0.7,7.4-0.1c0.3,1.1-0.1,2.8-1.3,5c-1.2,2.2-2.4,3.5-3.7,3.7
				c-2.3,0.4-4.7,0.9-7,1.4C90.2,126.9,77.4,169.2,71.5,207c-5.8,37.8-4.7,63.7,0.3,77.8c22.3-6.6,38.9-12.9,49.5-19.5
				c0.8-0.5,1.8-0.8,3-1.1c1.2-0.3,2,0.1,2.4,1.2c0.7,1.9-1.6,4-6.6,6.3c-14.5,7.5-28.7,15.2-42.7,23.1c2.9,2.5,6.6,3.1,11,2
				c3.7-2,7.3-4,11-5.9c1.1-0.3,1.7-0.1,1.9,0.4c0.1,2-1.7,4.6-5.4,7.6c-3.7,3-6.7,4.8-9,5.5c-5.7,1.5-11.1-0.6-16.3-6.3
				c-14.2,7.8-23.5,12.5-28.1,13.9c-4.6,1.4-7.9,1.1-10-0.8c-2.1-1.9-4.6-6.1-7.6-12.4C24.2,297.4,24.4,296.6,25.4,296.2z"/>
			<path class="st1" d="M148.8,87.3c3.6,14,0,27.9-10.2,41.9c-2,3-3.6,4.6-4.7,4.8c-1.1,0.2-1.8-0.1-2-0.9c6.1-17,8.9-27.5,7.8-31.6
				c-0.4-1.6-2.4-3.6-5.8-6c-3.5-2.4-5.3-4.1-5.6-5.2c-1.7-6,0.4-9.5,6-10.6c3.1-0.6,6.1-0.1,9.1,1.3
				C146.3,82.5,148.1,84.6,148.8,87.3z"/>
			<path class="st1" d="M327.3,148.8c-5.7,31.4-7,53.7-5.2,66.9c1.9,13.2,4.7,19.6,8.5,19.3c0.4-2.3,0.7-5.4,1.1-9.4
				c0.9,1.9,1.7,4.8,2.2,8.7c1,7.2-0.3,11-3.8,11.3c-11.3,1.1-19-10.8-22.9-35.8c-1.8-11.9-2.7-27.6-2.2-47.1
				c-4.5,6.9-8.7,15.4-12.5,25.4c-4.4,10.8-8.5,21.6-12.5,32.4c-6.6,18.1-10.6,27.3-12.8,27.5c-7.4,1-11.5-0.1-12.2-3.4
				c-0.2-0.8-0.4-7.5-0.4-20c0.4-36.9,0.1-61.9-2.3-74.9c-1.1-5.8-3.2-8.5-6.4-8.1c-8.9,1.2-18.3,17.9-26,50.2
				c-2.6,11.8-4.9,26.4-6.7,43.7c-1.8,17.3-2.7,26-3.1,26.1c-2.2,0.4-4.6,0.1-7.4-0.8c-2.8-0.9-4.4-2.4-4.9-4.3
				c-1.2-4.7-2.3-21.8-2-51.4c0.3-29.7-0.7-51.7-4.1-65.9c-1.1-4.7-3.4-6.9-7-6.8c-3.5,0.2-5.4-0.3-5.7-1.4c-0.6-2.5,0.9-4,4.6-4.6
				c16.6-2.7,26.5,3.6,29.8,18.8c1.7,7.7,1.7,20.9,0.5,39.6c1.4-5.8,2.9-11.6,4.4-17.3c3.8-13.7,8.1-23.8,12.6-30.4
				c4.5-6.6,10.1-10.3,16.4-11.2c0.2,0,0.5-0.1,0.7-0.1c11.3-1.5,18.4,6.5,21.3,23.6c2.4,13.8,1.7,36.5-0.8,68
				c11.5-22.4,24-44.8,37.4-66.9c2.8-2.5,6.9-4.1,12.5-4.6C324.1,145.3,327,146.3,327.3,148.8z"/>
			<path class="st1" d="M556.4,45.7c0.2-2.5-2.9-3.9-9.4-4.2c-15.5-0.6-32.3,1.9-50.2,7.6c-17.9,5.8-33,14.1-45.4,24.9
				c-12.4,10.8-18.2,21.5-17.9,31.9c0.2,10.5,11.7,28.1,32.3,53.4c20.5,25.4,29.7,44.8,29.6,57.6c-0.2,9.2-3.9,16.8-11.1,22.9
				c-7.2,6.1-15.7,9.1-25.7,9.2c-2.7,0-5.4,0.1-8.1,0.1c-20.8,0.3-35.7-7.3-45.3-23.4c0.2-0.8,0.3-1.7,0.5-2.5
				c9.9,5.2,20.2,7.6,31,7.4c10.8-0.2,21.4-3,32.2-8.4c10.7-5.3,16.2-11.5,16.3-18.8c0-4.2-4.7-12.8-14.7-25.6
				c-19.3-24.3-32.3-40.5-37.5-49c-5.2-8.5-8.1-18.8-8.5-30.8c-1.2-30.9,24.3-55.2,78.8-69.5c24.2-5.4,38.2-7.7,41.6-7.6
				c3.4,0.1,6.5,0.7,9.3,1.7c3,3.8,6,7.6,9,11.3c3.8,5.2,5.7,9.5,6,12.9c-0.5,5.9-7.9,12.3-22,19.7c-14,7.4-22.4,11.1-25.4,11
				c-0.1-0.7-0.2-1.4-0.3-2.1c6.6-4.7,13.3-9.4,20.1-14C551.1,55.1,556.1,49.9,556.4,45.7z"/>
			<path class="st1" d="M593.1,242.6c1.1-0.2,2.2-0.4,3.3-0.6c0.2,0.2,0.4,0.3,0.6,0.5c-0.3,2.5-3.1,3.5-8.4,3.1
				c-5.3-0.4-9.3-3.8-12.2-10.1c-2.8-6.4-3.8-14.8-2.9-25.2c0.9-10.4,3.5-22.3,8-35.4c-0.1,0.8-3.8,6.3-10.8,16.5
				c-21.6,34.2-36.2,51.4-46.4,51c-4.3-0.2-8.2-2.9-11.7-8.1c-3.5-5.3-5.1-12-4.9-20.2c0.2-8.2,4.5-20.7,13.4-37.4
				c8.9-16.6,19.8-31.3,32.7-43.8c12.9-12.5,24-18.4,32.8-17.8c1.2,0.1,2.4,0.2,3.6,0.3c9,0.6,16.4,3.3,22.2,7.8
				c5.8,4.6,8.2,10.2,7.4,16.9c-0.4,3.1-1.6,4.5-3.8,4.3c-0.7-0.1-1-0.5-0.9-1.3c-2.8-10.6-8.1-16.3-15.8-16.9
				c-13.5-1-30.6,11-49.5,36.2c-18.9,25.3-27.7,45-28.3,58.6c-0.2,5.3,0.8,8,3,8.1c10.1,0.4,31.2-27.3,71-81.3
				c0.5-0.5,1.3-0.7,2.4-0.7c1.1,0.1,3.3,1.6,6.8,4.5c3.5,3,5.1,5.4,4.8,7.3c-2.1,3.5-4.1,7-6.2,10.4c-9.9,18.8-15.2,35.7-16.7,50.5
				C585.4,234.6,587.5,242.1,593.1,242.6z"/>
			<path class="st1" d="M693.4,137.6c0.2,0.3,0.2,0.8,0.1,1.5c-0.1,0.7-1.4,2.3-3.8,4.8c-32.4,32.8-53.6,62.2-66.3,87.1
				c-1.5,3.5-2.9,7-4.4,10.5c-1.7,2.9-3.5,4.3-5.5,4.1c-1.9-0.2-4-1.1-6.2-2.7c-2.2-1.6-3.2-3.4-3-5.3c0.6-4.7,6-21.2,17.3-49.2
				c11.3-28,18.4-49.2,20.5-63.6c0.6-3.9,0.1-6.3-1.5-7.3c-1.6-1-3.2-1.5-4.9-1.5c-1.7,0-2.5-0.7-2.3-2.1c0.3-2.5,2.3-3.6,6-3.2
				c16.4,1.6,23.3,10.2,20.8,25.4c-0.9,5.8-10.5,27.7-27,66c12.6-18.1,25.1-33.5,37.1-46.2C682.1,143.2,690.1,137.1,693.4,137.6z
				 M722.2,137.4c0.2-1.1-0.5-0.5-2.2,1.8c-9.7,13-19,29.1-27.8,48.3c-8.9,19.2-13.7,31.8-14.8,37.9c-3.1,16.8-2.3,25.6,2.4,26.2
				c1.5,0.2,3.7-0.8,6.7-3.1c3-2.3,4.3-3.4,3.9-3.5c0.6,0.1,0.8,1.2,0.3,3.4c-1.4,7.2-5.4,10.3-11.8,9.4c-6.4-0.9-10.6-5.2-12.8-13
				c-2.2-7.8-2.1-18.4,0.2-32c2.4-13.5,8.3-31.1,18.5-52.5c10.2-21.4,18.5-31.7,24.2-30.9c0.6,0.1,1.2,0.2,1.8,0.3
				C719.2,131,723,133.5,722.2,137.4z"/>
			<path class="st1" d="M758.3,144.5c19,1.1,38.1,2.6,57.2,4.4c6.9,1.4,11.8,5.6,14.7,12.4c2.9,6.8,2.6,15.3-0.6,25.3
				c-0.4,1.4-9.2,6-25.6,14.4c-23.9,12.2-46.9,24.8-69.1,38c9.4-1.5,25.6-0.2,48.1,4.4c16.5,3.4,21.7,14.8,15.7,33.7
				c-3.3,10.6-7.1,15.4-11.2,14.5c-0.6-0.1-0.8-0.8-0.4-1.8c5.3-8.7,8.2-13.6,8.5-14.6c3-9.5-6.7-16.8-29.3-21.3
				c-22.5-4.4-45.3-2.6-67.3,5.4c-0.6-0.1-0.6-2,0.2-5.7c0.8-3.7,2.5-7.1,5.1-10.1c0.1-0.1,0.3-0.2,0.4-0.4c3.1-0.1,5.8-1.4,7.9-3.9
				c1.1-4.3,18.9-17.2,56.4-36.7c37.8-19.4,58.7-29,59.6-30.8c-1.6-5.3-5.1-8.5-10.6-9.7c-5.5-1.2-17.5-1.3-35.9,0
				c-18.3,1.3-28.8,1.9-31.6,1.4c-2.8-0.5-3.5-3.5-2.2-9.1c1.3-5.6,3.8-9.7,7.4-12.2C757.1,143.5,757.8,144.4,758.3,144.5z"/>
			<path class="st1" d="M850.4,222.1c-13.9,20.4-22,34.9-24.8,43.2c-2.8,8.4-2.9,12.9-0.2,13.5c1.9,0.5,4.8-0.4,8.8-2.7
				c4-2.2,6.5-3.7,7.4-4.3c0.9-0.6,2-1.3,3.1-1.9c0.8,0.2,1.1,0.9,0.7,1.9c-1.2,3.2-5.6,6.3-13.1,9.2c-7.5,3-12.6,4.2-15.3,3.5
				c-7.9-1.9-9.5-10.2-4.7-25.1c7.2-22.1,23.1-50.4,49.9-83.9c0.4-1.1,1.7-2.9,4-5.6c2.3-2.6,4-4.3,5-4.9c2.3-1.5,4.9-1.9,7.7-1.2
				c8.2,2,12,5.1,11.3,9C877.7,185.4,864.4,201.7,850.4,222.1z M934.3,112.4c0.5,0.1,0.5,0.9-0.1,2.2c-2.1,3.7-4.3,7.4-6.4,11.1
				c-10.2,15.5-18.9,22.3-26.2,20.4c-5.5-1.4-9.2-4.1-11.2-8.1C902.1,133.3,916.6,124.7,934.3,112.4z"/>
			<path class="st1" d="M1047.8,119.3c-4.7-0.5-9.3-0.9-14-1.4c-1.7-0.6-2.2-1.6-1.5-3.2c2-4.2,8.7-4.5,19.9-0.8
				c17.2,5.7,22.5,14.7,16,26.8c-2.1,4.2-19.7,19.6-50.5,47.4c-30.7,27.8-45.5,42.8-46.7,43.9c-26.2,26.6-42.6,49.4-51,67.8
				c-4.9,10.8-5.3,16.8-1.3,18.1c3.7-0.5,7.4-0.9,11.1-1.4c0.2,0.2,0.5,0.5,0.7,0.7c-0.9,1.8-3.2,3.2-6.9,4.1
				c-3.8,0.9-6.4,1.1-8,0.6c-9-2.9-9.4-13.8-1-32.8c5.3-11.9,17.4-31.1,37.5-57.3c-17.2,17.2-33.8,32.2-50,45.2
				c-16.1,13-27.1,18.7-33.7,16.9c-4.1-1.1-7-5.5-8.8-13.2c-1.8-7.7-1.7-14.4,0.4-20c6.2-16.6,21-35.1,45.7-54.7
				c24.8-19.6,44.2-27.3,56.5-23.6c3.2,1,6.4,3.2,9.4,6.7c3,3.5,3.9,6.5,2.7,9c-1.2,2.5-2.8,3.4-4.8,2.8c-1.6-2.2-3.2-4.3-4.9-6.4
				c-8-2.4-26.2,7.1-52.9,29.3c-26.5,22.3-41,39.3-45.3,50.3c-1.5,4-1.4,6.3,0.4,6.7c1.8,0.5,6.5-1.5,14.3-5.8
				c7.8-4.3,19.2-12,34.7-22.8c15.4-10.8,32.3-23.3,50.7-37.3c9.9-10.1,26-27.3,49.5-51.1c23.5-23.7,35.9-35.5,36-35.8
				C1054.2,123.8,1052.8,120.9,1047.8,119.3z"/>
		</g>
	</g>
</g>
</svg>
