<svg width="180.000000" height="215.000000" viewBox="0 0 180 215" fill="none" xmlns="http://www.w3.org/2000/svg" xmlns:xlink="http://www.w3.org/1999/xlink">
	<desc>
			Created with Pixso.
	</desc>
	<rect width="180.000000" height="215.000000" fill="#E5E5E5"/>
	<rect width="180.000000" height="41.000000" fill="#1B7F69"/>
	<path d="M51 14.7778L59 14.7778L59 24.8889L59 35L19 35L19 24.8889L19 14.7778L27 14.7778" stroke="#45B29A" stroke-width="3.000000" stroke-linejoin="round" stroke-linecap="round"/>
	<path d="M45 13.2222L39 17.8889L33 13.2222" stroke="#45B29A" stroke-width="3.000000" stroke-linejoin="round" stroke-linecap="round"/>
	<path d="M39 7L39 17.8889" stroke="#45B29A" stroke-width="3.000000" stroke-linejoin="round" stroke-linecap="round"/>
	<path d="M19 14.7778L39 26.4444L59 14.7778" stroke="#45B29A" stroke-width="3.000000" stroke-linejoin="round" stroke-linecap="round"/>
	<path d="M81.2456 29L80.0732 29L80.0732 21.3643L81.208 21.3643L81.208 22.5571L81.3071 22.5571C81.625 21.7402 82.3599 21.2651 83.3545 21.2651C84.3594 21.2651 85.0259 21.7402 85.4019 22.5571L85.4839 22.5571C85.877 21.7676 86.6768 21.2651 87.7705 21.2651C89.1309 21.2651 90.0981 22.0957 90.0981 23.8901L90.0981 29L88.9224 29L88.9224 23.8901C88.9224 22.7622 88.208 22.3179 87.3706 22.3179C86.2974 22.3179 85.6821 23.0425 85.6821 24.0269L85.6821 29L84.4893 29L84.4893 23.7705C84.4893 22.8989 83.8672 22.3179 82.9785 22.3179C82.0625 22.3179 81.2456 23.1074 81.2456 24.2285L81.2456 29ZM98.4881 27.2295C98.1292 28.3848 96.9979 29.1606 95.4461 29.1606C93.2381 29.1606 91.8846 27.5884 91.8846 25.2402C91.8846 22.8955 93.2586 21.2651 95.3265 21.2651C96.9158 21.2651 98.6077 22.2393 98.6077 25.083L98.6077 25.5786L93.0638 25.5786C93.1185 27.2158 94.0687 28.1045 95.4461 28.1045C96.3656 28.1045 97.056 27.708 97.3533 26.9116L98.4881 27.2295ZM103.1 21.2651C104.615 21.2651 105.438 21.9897 105.807 23.0732L104.751 23.3706C104.55 22.8442 104.126 22.2769 103.1 22.2769C102.167 22.2769 101.47 22.7554 101.47 23.4116C101.47 23.9995 101.88 24.3003 102.783 24.5259L103.917 24.8027C105.281 25.1377 105.944 25.8076 105.944 26.8706C105.944 28.1899 104.738 29.1606 102.964 29.1606C101.402 29.1606 100.332 28.4668 100.058 27.1714L101.173 26.8911C101.381 27.7114 101.983 28.125 102.943 28.125C104.037 28.125 104.734 27.5884 104.734 26.9321C104.734 26.4058 104.368 26.0366 103.599 25.8589L102.328 25.5581C100.923 25.23 100.298 24.5259 100.298 23.4731C100.298 22.1777 101.491 21.2651 103.1 21.2651ZM110.418 21.2651C111.933 21.2651 112.756 21.9897 113.125 23.0732L112.069 23.3706C111.868 22.8442 111.444 22.2769 110.418 22.2769C109.485 22.2769 108.788 22.7554 108.788 23.4116C108.788 23.9995 109.198 24.3003 110.101 24.5259L111.235 24.8027C112.599 25.1377 113.262 25.8076 113.262 26.8706C113.262 28.1899 112.056 29.1606 110.282 29.1606C108.72 29.1606 107.65 28.4668 107.376 27.1714L108.491 26.8911C108.699 27.7114 109.301 28.125 110.261 28.125C111.355 28.125 112.052 27.5884 112.052 26.9321C112.052 26.4058 111.686 26.0366 110.917 25.8589L109.646 25.5581C108.241 25.23 107.616 24.5259 107.616 23.4731C107.616 22.1777 108.809 21.2651 110.418 21.2651ZM119.548 27.9644C119.309 28.4634 118.611 29.1777 117.282 29.1777C115.829 29.1777 114.674 28.3232 114.674 26.833C114.674 25.083 116.222 24.7686 117.637 24.584C119.032 24.4062 119.606 24.4575 119.606 23.8901L119.606 23.8491C119.606 22.8716 119.076 22.2974 117.996 22.2974C116.879 22.2974 116.267 22.8955 116.007 23.4526L114.893 23.0527C115.491 21.6616 116.803 21.2651 117.955 21.2651C118.933 21.2651 120.782 21.542 120.782 23.9688L120.782 29L119.606 29L119.606 27.9644L119.548 27.9644ZM129.312 29.2188C129.312 31.1875 127.839 32.0215 126.011 32.0215C124.305 32.0215 123.365 31.2935 122.89 30.4902L123.823 29.834C124.138 30.2578 124.623 30.9893 126.011 30.9893C127.245 30.9893 128.14 30.4116 128.14 29.1401L128.14 27.5884L128.037 27.5884C127.781 28.0054 127.303 28.8804 125.812 28.8804C123.963 28.8804 122.569 27.5269 122.569 25.1411C122.569 22.7964 123.902 21.2651 125.833 21.2651C127.323 21.2651 127.802 22.1777 128.058 22.5776L128.178 22.5776L128.178 21.3643L129.312 21.3643L129.312 29.2188ZM137.703 27.2295C137.344 28.3848 136.213 29.1606 134.661 29.1606C132.453 29.1606 131.1 27.5884 131.1 25.2402C131.1 22.8955 132.474 21.2651 134.542 21.2651C136.131 21.2651 137.823 22.2393 137.823 25.083L137.823 25.5786L132.279 25.5786C132.334 27.2158 133.284 28.1045 134.661 28.1045C135.581 28.1045 136.271 27.708 136.569 26.9116L137.703 27.2295ZM144.722 29L143.549 29L143.549 21.3643L144.684 21.3643L144.684 22.5571L144.783 22.5571C145.101 21.7402 145.836 21.2651 146.831 21.2651C147.836 21.2651 148.502 21.7402 148.878 22.5571L148.96 22.5571C149.353 21.7676 150.153 21.2651 151.247 21.2651C152.607 21.2651 153.574 22.0957 153.574 23.8901L153.574 29L152.399 29L152.399 23.8901C152.399 22.7622 151.684 22.3179 150.847 22.3179C149.774 22.3179 149.158 23.0425 149.158 24.0269L149.158 29L147.965 29L147.965 23.7705C147.965 22.8989 147.343 22.3179 146.455 22.3179C145.539 22.3179 144.722 23.1074 144.722 24.2285L144.722 29ZM161.964 27.2295C161.605 28.3848 160.474 29.1606 158.922 29.1606C156.714 29.1606 155.361 27.5884 155.361 25.2402C155.361 22.8955 156.735 21.2651 158.803 21.2651C160.392 21.2651 162.084 22.2393 162.084 25.083L162.084 25.5786L156.54 25.5786C156.595 27.2158 157.545 28.1045 158.922 28.1045C159.842 28.1045 160.532 27.708 160.83 26.9116L161.964 27.2295ZM95.3265 22.3179C93.9832 22.3179 93.1424 23.3774 93.0638 24.5669L97.4149 24.5669C97.4149 23.2715 96.598 22.3179 95.3265 22.3179ZM123.745 25.1206C123.745 26.7134 124.5 27.8276 125.97 27.8276C127.381 27.8276 128.157 26.8125 128.157 25.1206C128.157 23.4731 127.402 22.3179 125.97 22.3179C124.479 22.3179 123.745 23.5723 123.745 25.1206ZM134.542 22.3179C133.198 22.3179 132.358 23.3774 132.279 24.5669L136.63 24.5669C136.63 23.2715 135.813 22.3179 134.542 22.3179ZM158.803 22.3179C157.459 22.3179 156.619 23.3774 156.54 24.5669L160.891 24.5669C160.891 23.2715 160.074 22.3179 158.803 22.3179ZM115.85 26.8911C115.85 27.708 116.527 28.125 117.46 28.125C118.851 28.125 119.606 27.1919 119.606 26.2349L119.606 25.1616C119.408 25.4009 118.075 25.541 117.579 25.5991C116.663 25.7188 115.85 25.9956 115.85 26.8911Z" fill="#000000FF"/>
	<defs/>
</svg>
